<?xml version="1.0" encoding="utf-8"?>
<!-- Generator: Adobe Illustrator 26.1.0, SVG Export Plug-In . SVG Version: 6.00 Build 0)  -->
<svg version="1.1" id="Layer_1" xmlns="http://www.w3.org/2000/svg" xmlns:xlink="http://www.w3.org/1999/xlink" x="0px" y="0px"
	 viewBox="0 0 378.73 82" style="enable-background:new 0 0 378.73 82;" xml:space="preserve">
<style type="text/css">
	.st0{fill:#18B2E8;}
	.st1{fill:#E9580C;}
	.st2{fill:#004F9E;}
	.st3{fill:#595A5C;}
	.st4{fill:#59595C;}
	.st5{opacity:0.51;}
	.st6{fill:#00BCF1;}
	.st7{fill:#F16322;}
	.st8{fill:#005AA9;}
	.st9{fill:#5A5B5C;}
	.st10{fill:#B8E0F5;}
	.st11{fill:#22AEE4;}
	.st12{fill:#E6590F;}
</style>
<g>
	<g>
		<g>
			<path class="st0" d="M61.53,72.83c-0.81,0.06-1.62,0.08-2.43,0.07c-1.83-0.03-3.66-0.22-5.46-0.54c-3.8-0.67-7.48-1.9-10.97-3.53
				c-4.93-2.31-9.29-5.8-12.66-10.07c-0.79-1-1.52-2.04-2.2-3.11c-3.18-5.07-5.66-11.47-4.84-17.55c0.66-4.89,3.3-9.36,7.33-12.2
				c3-2.12,6.63-3.27,10.31-3.27c7.52,0,13.95,4.64,16.6,11.21c0.66-0.15,1.03-1.09,1.26-1c-0.24-0.2-7.75-14.1-9.47-12.93
				c-2.55-2.51-7.95-5.29-11.23-6.48c-9.37-3.39-17.7,0.31-20.1,1.37c-2.24,1-10.9,5.18-14.61,14.24c-0.1,0.26-0.2,0.52-0.3,0.78
				c-0.97,3.42-1.5,7.03-1.5,10.76c0,21.75,17.63,39.38,39.37,39.38c0.02,0,0.03,0,0.05,0c0.56,0,1.12-0.02,1.67-0.04
				c0.18-0.01,0.36-0.02,0.54-0.03c0.49-0.03,0.98-0.07,1.47-0.11c0.3-0.03,0.6-0.06,0.91-0.1c0.18-0.02,0.36-0.04,0.53-0.07
				c5.06-0.79,9.11-2.23,12.07-3.62c2.02-0.98,3.94-2.14,5.75-3.45C63.2,72.86,62.03,72.79,61.53,72.83z"/>
			<path class="st1" d="M80.07,40.58c0.27-11.47-5.59-22.81-14.24-30.13c-0.55-0.47-1.12-0.92-1.69-1.35
				c-4.15-3.14-8.92-5.47-13.98-6.72c-0.7-0.17-1.47-0.24-2.15-0.47c0.38,0.13-5.53-1.41-12.84-0.32
				c-5.29,0.79,18.84,5.3,21.94,9.76c2.77,3.97,4.97,8.42,5.36,13.22c0.93,11.43,1.5,10.06,0.19,12.19c-0.43,0.7-0.06,2.46-0.28,3.3
				c-0.28,1.06-0.79,1.99-1.22,3c-0.84,1.98-1.12,4.19-2.49,5.85c-1.68,2.04-3.55,3.36-5.84,4.69c-3.01,2.81-6.99,4.6-11.39,4.79
				c2.52,1.99,8.94,7.26,19.48,5.68c10.84-1.63,18.47-11.65,19.12-22.27C80.04,41.39,80.05,40.99,80.07,40.58z"/>
			<path class="st2" d="M56.76,7.89C52.1,3.64,44.22,0.84,37.7,1.32C17.32,2.81,1.25,19.82,1.25,40.59c0,5.05,0.95,9.89,2.69,14.32
				c-0.44-1.37-2-6.31-1.09-13.06c0.01-0.06,0.02-0.11,0.03-0.17c1.55-10.62,7.94-17.34,14.72-21.09c6.99-3.87,20.83-6.68,32.8,3.77
				c4.08,3.15,8.1,10.08,8.1,16.16c0,8.46-5.88,15.55-13.77,17.41c6.5-1.45,13.33-4.67,17.22-9.94
				C70.75,36.09,67.38,17.58,56.76,7.89z"/>
		</g>
		<g>
			<path class="st3" d="M333.3,9.62c0,2.78-2.44,5.03-5.44,5.03c-3,0-5.44-2.26-5.44-5.03c0-2.78,2.44-5.03,5.44-5.03
				C330.86,4.58,333.3,6.84,333.3,9.62"/>
			<path class="st3" d="M197.74,42.67v10.79c-4.61,3.27-9.07,4.79-14.01,4.79c-5.03,0-10.12-2.21-10.12-7.14
				c0-6.18,5.82-9.05,18.47-9.05C195.23,42.05,197.74,42.67,197.74,42.67 M186.48,18.7c-6.32,0-12.5,1.31-16.58,3.52
				c-0.45,0.15-0.76,0.4-0.9,0.73c-0.15,0.36-0.1,0.76,0.13,1.18l1.87,3.77c0.29,0.5,0.65,0.93,1.31,0.93l0.8-0.18l0.02-0.01
				l0.03-0.01c3.74-1.83,8.15-2.69,13.89-2.69c7.67,0,10.8,2.26,10.8,7.78v1.93c0,0-3.76-0.62-7.71-0.62
				c-16.05,0-25.49,6.01-25.49,16.08c0,8.73,7.12,14.59,17.71,14.59c5.61,0,10.9-1.64,15.38-4.77v2.01l0.01,0.01
				c-0.03,0.47,0.09,0.85,0.38,1.13c0.29,0.28,0.7,0.41,1.2,0.41l0.14-0.01l5.22-0.03c0.98-0.06,1.65-0.34,1.76-1.39l0.02-0.12
				v-30.6C206.47,26.11,203.01,18.7,186.48,18.7"/>
			<path class="st4" d="M270.34,42.67v10.79c-4.61,3.27-9.07,4.79-14.01,4.79c-5.03,0-10.12-2.21-10.12-7.14
				c0-6.18,5.82-9.05,18.47-9.05C267.83,42.05,270.34,42.67,270.34,42.67 M259.08,18.7c-6.32,0-12.5,1.31-16.58,3.52
				c-0.45,0.15-0.76,0.4-0.9,0.73c-0.15,0.36-0.1,0.76,0.13,1.18l1.87,3.77c0.29,0.5,0.65,0.93,1.31,0.93l0.8-0.18l0.02-0.01
				l0.03-0.01c3.74-1.83,8.15-2.69,13.89-2.69c7.67,0,10.8,2.26,10.8,7.78v1.93c0,0-3.76-0.62-7.71-0.62
				c-16.05,0-25.49,6.01-25.49,16.08c0,8.73,7.12,14.59,17.71,14.59c5.61,0,10.9-1.64,15.38-4.77v2.01l0.01,0.01
				c-0.03,0.47,0.09,0.85,0.38,1.13c0.29,0.28,0.7,0.41,1.2,0.41l0.14-0.01l5.23-0.03c0.98-0.06,1.65-0.34,1.76-1.39l0.02-0.12
				v-30.6C279.08,26.11,275.61,18.7,259.08,18.7"/>
			<path class="st3" d="M361.37,37.49c-5.95-1.87-9.18-3.49-9.18-6.64c0-3.8,4.49-4.81,7.14-4.81c3.99,0,7.86,1.17,11.19,3.39
				l0.01,0.01l0.93,0.32l0.26-0.02c0.41-0.08,0.76-0.35,1.02-0.78l2.48-3.71c0.39-0.68,0.59-1.39-0.5-2.08l-0.01-0.01l-0.02-0.02
				h-0.01c-4.36-2.95-9.53-4.45-15.35-4.45c-7.81,0-15.87,4.62-15.87,12.37c0,8.94,8.93,11.99,14.29,13.82
				c6.14,1.97,9.87,3.47,9.87,7.6c0,3.49-4.3,5.66-8.29,5.66c-3.8,0-8.4-1.54-11.76-3.94l-0.02-0.03c-0.39-0.32-0.8-0.46-1.21-0.41
				c-0.43,0.05-0.81,0.3-1.11,0.73l-2.91,3.69c-0.46,0.68-0.73,1.4,0.36,2.2l0.01,0.01c4.5,3.27,10.82,5.22,16.89,5.22
				c9.32,0,16.9-5.98,16.9-13.32C376.46,42.62,367.39,39.54,361.37,37.49"/>
			<path class="st3" d="M311.96,19.73c-5.13,0-9.56,2.08-12.46,5.8l0.05-4.13c0-0.91-0.62-1.46-1.66-1.46h-4.82
				c-1.37,0-1.58,0.87-1.58,1.39V63c0,0.83,0.6,1.39,1.5,1.39h5.28c0.9,0,1.5-0.56,1.5-1.39V34.54c2-4.75,6.07-7.35,11.47-7.35h0.93
				c1.1,0,1.66-0.52,1.66-1.54v-4.39C313.85,19.99,313.13,19.73,311.96,19.73"/>
			<path class="st3" d="M225.83,8.64h-5.39c-1.37,0-1.66,0.8-1.66,1.46v52.82c0,0.67,0.29,1.46,1.66,1.46h5.39
				c1.02,0,1.58-0.52,1.58-1.46V10.1C227.41,9.16,226.85,8.64,225.83,8.64"/>
			<path class="st3" d="M330.57,19.94h-5.39c-1.37,0-1.66,0.8-1.66,1.46v41.52c0,0.67,0.29,1.46,1.66,1.46h5.39
				c1.02,0,1.58-0.52,1.58-1.46V21.4C332.15,20.46,331.59,19.94,330.57,19.94"/>
			<path class="st4" d="M154.96,56.65l-28.34-0.02l-6.6,7.75h34.93c0.95,0,1.58-0.59,1.58-1.46v-4.88
				C156.53,57.22,155.88,56.65,154.96,56.65"/>
			<path class="st4" d="M117.45,27.67l25.51,0.02l6.59-7.75h-32.1c-0.95,0-1.58,0.59-1.58,1.46v4.88
				C115.88,27.1,116.52,27.67,117.45,27.67"/>
			<path class="st3" d="M155.46,24.4l-0.39-3.13v-0.01c-0.06-0.4-0.35-1.31-1.89-1.31h-3.63l-34.15,38.18
				c-0.52,0.68-0.68,1.35-0.5,2.15l0.39,2.81c0.08,0.6,0.46,1.31,1.81,1.31h4.16l33.69-37.85C155.52,25.8,155.54,25.08,155.46,24.4"
				/>
		</g>
	</g>
</g>
</svg>
